<?xml version="1.0" encoding="utf-8"?>
<!-- Generator: Adobe Illustrator 16.0.0, SVG Export Plug-In . SVG Version: 6.00 Build 0)  -->
<!DOCTYPE svg PUBLIC "-//W3C//DTD SVG 1.1//EN" "http://www.w3.org/Graphics/SVG/1.1/DTD/svg11.dtd">
<svg version="1.1" id="Forma_1_1_" xmlns="http://www.w3.org/2000/svg" xmlns:xlink="http://www.w3.org/1999/xlink" x="0px" y="0px"
	 width="20.186px" height="18.627px" viewBox="0 0 20.186 18.627" enable-background="new 0 0 20.186 18.627" xml:space="preserve">
<g id="Forma_1">
	<g>
		<path fill-rule="evenodd" clip-rule="evenodd" d="M8.832,10.844c0,0.503,0.408,0.913,0.911,0.913c0.484,0,0.881-0.378,0.911-0.854
			L13.868,6.9L9.743,9.935C9.24,9.935,8.832,10.342,8.832,10.844z M10.094,0C4.518,0-0.002,4.518,0,10.093
			c0,2.077,0.629,4.007,1.703,5.61h1.373c-0.008-0.01-0.018-0.021-0.023-0.031l1.703-1.705L3.851,13.06l-1.532,1.53
			c-0.77-1.323-1.216-2.855-1.216-4.497c0-0.079,0.011-0.151,0.013-0.229h2.079V8.58L1.242,8.579
			c0.256-1.508,0.881-2.884,1.787-4.035l1.418,1.417l0.908-0.907L3.895,3.591c1.518-1.448,3.54-2.363,5.778-2.466v2.326l1.284,0.001
			l0.002-2.306c2.002,0.191,3.809,1.045,5.211,2.334l-1.428,1.428l0.906,0.908l1.409-1.408c0.962,1.178,1.622,2.605,1.888,4.169
			h-1.88v1.284l2.007,0.002c0.002,0.078,0.01,0.15,0.01,0.229c0,1.648-0.451,3.189-1.226,4.518l-1.631-1.426L15.38,14.15
			l1.748,1.527c-0.006,0.007-0.012,0.018-0.019,0.025h0.048l0.036,0.031l0.027-0.031h1.26c1.077-1.604,1.705-3.534,1.705-5.611
			C20.186,4.518,15.667,0,10.094,0z M5.586,18.627h9.095v-2.368H5.586V18.627z M6.037,6.18c-0.01,0.008,0,0-0.001,0.001l0.003-0.002
			L6.052,6.17L6.067,6.16l0.039-0.025l0.074-0.049c0.047-0.037,0.098-0.066,0.15-0.096c0.1-0.063,0.205-0.118,0.309-0.173
			c0.211-0.102,0.426-0.197,0.649-0.267c0.436-0.144,0.888-0.217,1.327-0.226c0.051-0.004,0.106-0.002,0.162,0
			c0.052,0,0.108,0.001,0.162,0.003c0.104,0.009,0.213,0.012,0.316,0.025c0.209,0.022,0.411,0.064,0.604,0.111
			c0.392,0.098,0.742,0.237,1.045,0.4c0.308,0.163,0.575,0.345,0.791,0.521c0.22,0.178,0.396,0.353,0.529,0.503
			c0.035,0.036,0.064,0.072,0.093,0.105c0.028,0.031,0.053,0.062,0.077,0.089c0.022,0.029,0.044,0.055,0.06,0.08
			c0.021,0.024,0.043,0.057,0.063,0.079c0.073,0.099,0.108,0.153,0.108,0.153l1.123-0.663c0,0-0.146-0.229-0.227-0.322
			c-0.021-0.025-0.04-0.048-0.069-0.079c-0.029-0.032-0.059-0.07-0.101-0.109c-0.035-0.038-0.074-0.082-0.118-0.121
			c-0.039-0.039-0.083-0.081-0.126-0.128c-0.189-0.175-0.426-0.38-0.72-0.577c-0.293-0.203-0.639-0.401-1.032-0.572
			c-0.396-0.17-0.844-0.302-1.321-0.384C9.797,4.403,9.549,4.374,9.292,4.369C9.171,4.361,9.046,4.366,8.917,4.366
			C8.852,4.37,8.788,4.374,8.723,4.377C8.658,4.382,8.59,4.387,8.526,4.396c-0.514,0.052-1.037,0.187-1.53,0.396
			c-0.247,0.104-0.49,0.229-0.72,0.371C6.161,5.237,6.048,5.31,5.938,5.392C5.881,5.43,5.828,5.47,5.775,5.514l-0.16,0.131
			C5.52,5.733,5.427,5.812,5.323,5.913c-0.1,0.096-0.19,0.198-0.278,0.297C4.87,6.412,4.706,6.626,4.563,6.853
			C4.279,7.3,4.064,7.784,3.93,8.268c-0.022,0.061-0.037,0.123-0.05,0.184C3.866,8.512,3.85,8.573,3.836,8.631
			C3.814,8.754,3.789,8.872,3.771,8.994c-0.035,0.24-0.052,0.479-0.059,0.711c-0.003,0.457,0.042,0.896,0.127,1.289
			c0.086,0.395,0.207,0.737,0.335,1.039c0.126,0.297,0.265,0.545,0.39,0.738c0.031,0.049,0.06,0.097,0.087,0.142
			c0.031,0.04,0.059,0.081,0.083,0.119c0.054,0.069,0.097,0.133,0.138,0.178c0.074,0.101,0.115,0.15,0.115,0.15
			s-0.039-0.054-0.106-0.155c-0.035-0.052-0.074-0.116-0.116-0.194c-0.027-0.037-0.05-0.083-0.076-0.124
			c-0.024-0.044-0.049-0.095-0.077-0.144c-0.104-0.201-0.224-0.455-0.324-0.755c-0.104-0.299-0.192-0.645-0.247-1.028
			c-0.051-0.382-0.06-0.798-0.021-1.229c0.022-0.215,0.057-0.438,0.107-0.658c0.022-0.109,0.056-0.22,0.085-0.331
			c0.018-0.054,0.038-0.104,0.054-0.162c0.016-0.056,0.039-0.11,0.06-0.163C4.489,7.98,4.719,7.559,5.008,7.18
			C5.15,6.989,5.313,6.811,5.481,6.644C5.57,6.561,5.658,6.479,5.748,6.407C5.83,6.334,5.938,6.255,6.037,6.18z"/>
	</g>
</g>
</svg>
