<?xml version="1.0" encoding="utf-8"?>
<!-- Generator: Adobe Illustrator 16.0.0, SVG Export Plug-In . SVG Version: 6.00 Build 0)  -->
<!DOCTYPE svg PUBLIC "-//W3C//DTD SVG 1.1//EN" "http://www.w3.org/Graphics/SVG/1.1/DTD/svg11.dtd">
<svg version="1.1" id="Forma_1_1_" xmlns="http://www.w3.org/2000/svg" xmlns:xlink="http://www.w3.org/1999/xlink" x="0px" y="0px"
	 width="38px" height="55px" viewBox="0 0 38 55" enable-background="new 0 0 38 55" xml:space="preserve">
<g id="Forma_1">
	<g>
		<path fill-rule="evenodd" clip-rule="evenodd" d="M19.176,12.055c-3.842,0-6.97,3.155-6.97,7.03c0,3.876,3.127,7.03,6.97,7.03
			c3.842,0,6.97-3.154,6.97-7.03C26.146,15.21,23.018,12.055,19.176,12.055z M19.176,24.106c-2.745,0-4.978-2.253-4.978-5.021
			s2.233-5.021,4.978-5.021s4.979,2.253,4.979,5.021S21.921,24.106,19.176,24.106z M32.501,5.645C28.895,2.007,24.1,0.004,19,0.004
			c-5.101,0-9.895,2.003-13.501,5.641c-6.674,6.731-7.503,19.395-1.796,27.067L19,54.995l15.274-22.252
			C40.004,25.039,39.175,12.376,32.501,5.645z M32.659,31.569L19,51.466L5.318,31.538C0.142,24.576,0.884,13.14,6.907,7.064
			C10.137,3.807,14.432,2.013,19,2.013c4.569,0,8.862,1.794,12.093,5.052C37.117,13.14,37.858,24.576,32.659,31.569z"/>
	</g>
</g>
</svg>
