<?xml version="1.0" encoding="utf-8"?>
<!-- Generator: Adobe Illustrator 16.0.0, SVG Export Plug-In . SVG Version: 6.00 Build 0)  -->
<!DOCTYPE svg PUBLIC "-//W3C//DTD SVG 1.1//EN" "http://www.w3.org/Graphics/SVG/1.1/DTD/svg11.dtd">
<svg version="1.1" id="Forma_1_1_" xmlns="http://www.w3.org/2000/svg" xmlns:xlink="http://www.w3.org/1999/xlink" x="0px" y="0px"
	 width="20.186px" height="18.627px" viewBox="0 0 20.186 18.627" enable-background="new 0 0 20.186 18.627" xml:space="preserve">
<g id="Forma_1">
	<g>
		<path fill-rule="evenodd" clip-rule="evenodd" d="M10.653,10.902L13.868,6.9L9.743,9.935c-0.502,0-0.911,0.407-0.911,0.909
			c0,0.503,0.408,0.913,0.911,0.913C10.227,11.757,10.624,11.379,10.653,10.902z M10.094,0C4.518,0-0.002,4.518,0,10.093
			c0,2.077,0.629,4.007,1.703,5.61h1.373c-0.008-0.01-0.018-0.021-0.023-0.031l1.703-1.705L3.851,13.06l-1.532,1.53
			c-0.77-1.323-1.216-2.855-1.216-4.497c0-0.079,0.011-0.151,0.013-0.229h2.079V8.58L1.242,8.579
			c0.256-1.508,0.881-2.884,1.787-4.035l1.418,1.417l0.908-0.907L3.895,3.591c1.518-1.448,3.54-2.363,5.778-2.466v2.326l1.284,0.001
			l0.002-2.306c2.002,0.191,3.809,1.045,5.211,2.334l-1.428,1.428l0.906,0.908l1.409-1.408c0.962,1.178,1.622,2.605,1.888,4.169
			h-1.88v1.284l2.007,0.002c0.002,0.078,0.01,0.15,0.01,0.229c0,1.648-0.451,3.189-1.226,4.518l-1.631-1.426L15.38,14.15
			l1.748,1.527c-0.006,0.007-0.012,0.018-0.019,0.025h0.048l0.036,0.031l0.027-0.031h1.26c1.077-1.604,1.705-3.534,1.705-5.611
			C20.186,4.518,15.667,0,10.094,0z M5.586,18.627h9.095v-2.368H5.586V18.627z"/>
	</g>
</g>
</svg>
